<svg width="31" height="36" viewBox="0 0 31 36" fill="none" xmlns="http://www.w3.org/2000/svg">
<path d="M4.42857 2.25C1.98594 2.25 0 4.26797 0 6.75V29.25C0 31.732 1.98594 33.75 4.42857 33.75H11.2237V23.4984H7.57009V18H11.2237V15.6305C11.2237 9.50625 13.95 6.66563 19.8732 6.66563C20.9942 6.66563 22.9317 6.89062 23.7275 7.11562V12.0938C23.3123 12.0516 22.5857 12.0234 21.6792 12.0234C18.773 12.0234 17.652 13.1414 17.652 16.0453V18H23.4368L22.4404 23.4984H17.6451V33.75H26.5714C29.0141 33.75 31 31.732 31 29.25V6.75C31 4.26797 29.0141 2.25 26.5714 2.25H4.42857Z" fill="white"/>
</svg>
