<svg width="112" height="89" viewBox="0 0 112 89" fill="none" xmlns="http://www.w3.org/2000/svg">
<path d="M56.595 14.8102L39.655 28.4383C36.8375 30.698 36.295 34.7656 38.43 37.6686C40.6875 40.7627 45.08 41.3711 48.1075 39.0244L65.485 25.6049C66.71 24.6662 68.46 24.8748 69.4225 26.0916C70.385 27.3084 70.1575 29.0467 68.9325 30.0027L65.275 32.8188L96.285 61.1875H103.6C108.237 61.1875 112 57.4502 112 52.8438V30.5938C112 25.9873 108.237 22.25 103.6 22.25H90.3H89.6H89.4775L88.795 21.8154L76.09 13.7324C73.4125 12.0289 70.28 11.125 67.095 11.125C63.28 11.125 59.57 12.4287 56.595 14.8102ZM60.585 36.4344L51.5375 43.4223C46.025 47.6984 38.0275 46.5859 33.8975 40.9539C30.0125 35.6521 30.9925 28.2471 36.12 24.1273L50.68 12.4287C48.65 11.577 46.4625 11.1424 44.24 11.1424C40.95 11.125 37.7475 12.0984 35 13.9062L22.4 22.25H8.4C3.7625 22.25 0 25.9873 0 30.5938V52.8438C0 57.4502 3.7625 61.1875 8.4 61.1875H27.335L43.33 75.6848C46.76 78.7963 52.0625 78.5529 55.195 75.1459C56.1575 74.0855 56.805 72.8514 57.1375 71.565L60.1125 74.2768C63.525 77.3883 68.845 77.1623 71.9775 73.7727C72.765 72.9209 73.3425 71.9301 73.71 70.9045C77.105 73.1643 81.725 72.6949 84.5775 69.6008C87.71 66.2111 87.4825 60.9268 84.07 57.8152L60.585 36.4344Z" fill="white"/>
</svg>
