<svg width="31" height="36" viewBox="0 0 31 36" fill="none" xmlns="http://www.w3.org/2000/svg">
<path d="M28.7857 2.25H2.20737C0.989509 2.25 0 3.26953 0 4.52109V31.4789C0 32.7305 0.989509 33.75 2.20737 33.75H28.7857C30.0036 33.75 31 32.7305 31 31.4789V4.52109C31 3.26953 30.0036 2.25 28.7857 2.25ZM9.3692 29.25H4.77455V14.2172H9.37612V29.25H9.3692ZM7.07187 12.1641C5.59799 12.1641 4.40781 10.9477 4.40781 9.45703C4.40781 7.96641 5.59799 6.75 7.07187 6.75C8.53884 6.75 9.73594 7.96641 9.73594 9.45703C9.73594 10.9547 8.54576 12.1641 7.07187 12.1641ZM26.5922 29.25H21.9975V21.9375C21.9975 20.1938 21.9629 17.9508 19.6103 17.9508C17.2161 17.9508 16.8493 19.8492 16.8493 21.8109V29.25H12.2547V14.2172H16.6625V16.2703H16.7248C17.3406 15.0891 18.8422 13.8445 21.0772 13.8445C25.7272 13.8445 26.5922 16.9594 26.5922 21.0094V29.25Z" fill="white"/>
</svg>
