<svg width="68" height="91" viewBox="0 0 68 91" fill="none" xmlns="http://www.w3.org/2000/svg">
<path d="M17 17.0625V45.5C17 54.9199 24.6146 62.5625 34 62.5625C43.3854 62.5625 51 54.9199 51 45.5H36.8333C35.275 45.5 34 44.2203 34 42.6562C34 41.0922 35.275 39.8125 36.8333 39.8125H51V34.125H36.8333C35.275 34.125 34 32.8453 34 31.2812C34 29.7172 35.275 28.4375 36.8333 28.4375H51V22.75H36.8333C35.275 22.75 34 21.4703 34 19.9062C34 18.3422 35.275 17.0625 36.8333 17.0625H51C51 7.64258 43.3854 0 34 0C24.6146 0 17 7.64258 17 17.0625ZM56.6667 42.6562V45.5C56.6667 58.0658 46.5198 68.25 34 68.25C21.4802 68.25 11.3333 58.0658 11.3333 45.5V38.3906C11.3333 36.0268 9.43855 34.125 7.08334 34.125C4.72814 34.125 2.83334 36.0268 2.83334 38.3906V45.5C2.83334 61.3361 14.5563 74.4174 29.75 76.4969V82.4688H21.25C18.8948 82.4688 17 84.3705 17 86.7344C17 89.0982 18.8948 91 21.25 91H34H46.75C49.1052 91 51 89.0982 51 86.7344C51 84.3705 49.1052 82.4688 46.75 82.4688H38.25V76.4969C53.4438 74.4174 65.1667 61.3361 65.1667 45.5V38.3906C65.1667 36.0268 63.2719 34.125 60.9167 34.125C58.5615 34.125 56.6667 36.0268 56.6667 38.3906V42.6562Z" fill="white"/>
</svg>
