<svg width="122" height="97" viewBox="0 0 122 97" fill="none" xmlns="http://www.w3.org/2000/svg">
<path d="M13.725 16.6719C13.725 13.8581 14.8497 11.1596 16.8516 9.16991C18.8536 7.18027 21.5688 6.0625 24.4 6.0625C27.2312 6.0625 29.9464 7.18027 31.9484 9.16991C33.9503 11.1596 35.075 13.8581 35.075 16.6719C35.075 19.4857 33.9503 22.1842 31.9484 24.1738C29.9464 26.1635 27.2312 27.2812 24.4 27.2812C21.5688 27.2812 18.8536 26.1635 16.8516 24.1738C14.8497 22.1842 13.725 19.4857 13.725 16.6719ZM12.2 46.5486C10.2937 48.6705 9.15 51.4934 9.15 54.5625C9.15 57.6316 10.2937 60.4545 12.2 62.5764V46.5486ZM39.7262 37.2086C34.0647 42.1912 30.5 49.4852 30.5 57.5938C30.5 64.092 32.7875 70.0598 36.6 74.7393V78.8125C36.6 82.1658 33.8741 84.875 30.5 84.875H18.3C14.9259 84.875 12.2 82.1658 12.2 78.8125V73.7352C4.99438 70.325 0 63.0311 0 54.5625C0 42.8354 9.55031 33.3438 21.35 33.3438H27.45C32.025 33.3438 36.2569 34.7646 39.7262 37.1896V37.2086ZM85.4 78.8125V74.7393C89.2125 70.0598 91.5 64.092 91.5 57.5938C91.5 49.4852 87.9353 42.1912 82.2737 37.1896C85.7431 34.7646 89.975 33.3438 94.55 33.3438H100.65C112.45 33.3438 122 42.8354 122 54.5625C122 63.0311 117.006 70.325 109.8 73.7352V78.8125C109.8 82.1658 107.074 84.875 103.7 84.875H91.5C88.1259 84.875 85.4 82.1658 85.4 78.8125ZM86.925 16.6719C86.925 13.8581 88.0497 11.1596 90.0516 9.16991C92.0536 7.18027 94.7688 6.0625 97.6 6.0625C100.431 6.0625 103.146 7.18027 105.148 9.16991C107.15 11.1596 108.275 13.8581 108.275 16.6719C108.275 19.4857 107.15 22.1842 105.148 24.1738C103.146 26.1635 100.431 27.2812 97.6 27.2812C94.7688 27.2812 92.0536 26.1635 90.0516 24.1738C88.0497 22.1842 86.925 19.4857 86.925 16.6719ZM109.8 46.5486V62.5953C111.706 60.4545 112.85 57.6506 112.85 54.5814C112.85 51.5123 111.706 48.6895 109.8 46.5676V46.5486ZM61 6.0625C64.2356 6.0625 67.3388 7.33995 69.6267 9.61383C71.9146 11.8877 73.2 14.9717 73.2 18.1875C73.2 21.4033 71.9146 24.4873 69.6267 26.7612C67.3388 29.035 64.2356 30.3125 61 30.3125C57.7644 30.3125 54.6612 29.035 52.3733 26.7612C50.0854 24.4873 48.8 21.4033 48.8 18.1875C48.8 14.9717 50.0854 11.8877 52.3733 9.61383C54.6612 7.33995 57.7644 6.0625 61 6.0625ZM45.75 57.5938C45.75 60.6629 46.8937 63.4668 48.8 65.6076V49.5799C46.8937 51.7207 45.75 54.5246 45.75 57.5938ZM73.2 49.5799V65.6266C75.1062 63.4857 76.25 60.6818 76.25 57.6127C76.25 54.5436 75.1062 51.7207 73.2 49.5988V49.5799ZM85.4 57.5938C85.4 66.0623 80.4056 73.3563 73.2 76.7664V84.875C73.2 88.2283 70.4741 90.9375 67.1 90.9375H54.9C51.5259 90.9375 48.8 88.2283 48.8 84.875V76.7664C41.5944 73.3563 36.6 66.0623 36.6 57.5938C36.6 45.8666 46.1503 36.375 57.95 36.375H64.05C75.8497 36.375 85.4 45.8666 85.4 57.5938Z" fill="white"/>
</svg>
