<svg width="31" height="36" viewBox="0 0 31 36" fill="none" xmlns="http://www.w3.org/2000/svg">
<path d="M4.42857 2.25C1.98594 2.25 0 4.26797 0 6.75V29.25C0 31.732 1.98594 33.75 4.42857 33.75H26.5714C29.0141 33.75 31 31.732 31 29.25V6.75C31 4.26797 29.0141 2.25 26.5714 2.25H4.42857ZM24.9868 8.15625L17.8042 16.4953L26.2531 27.8438H19.6379L14.4621 20.9602L8.53192 27.8438H5.24509L12.9259 18.9211L4.82299 8.15625H11.6042L16.2888 14.4492L21.7 8.15625H24.9868ZM22.3712 25.8469L10.6147 10.0477H8.65647L20.5444 25.8469H22.3643H22.3712Z" fill="white"/>
</svg>
